<?xml version="1.0" encoding="UTF-8" standalone="no"?>
<!-- Created with Inkscape (http://www.inkscape.org/) -->

<svg
   width="65.025368mm"
   height="30.397223mm"
   viewBox="0 0 65.025368 30.397223"
   version="1.1"
   id="svg1106"
   inkscape:version="1.1.2 (0a00cf5339, 2022-02-04)"
   sodipodi:docname="EngineeringResin_text.svg"
   xmlns:inkscape="http://www.inkscape.org/namespaces/inkscape"
   xmlns:sodipodi="http://sodipodi.sourceforge.net/DTD/sodipodi-0.dtd"
   xmlns="http://www.w3.org/2000/svg"
   xmlns:svg="http://www.w3.org/2000/svg">
  <sodipodi:namedview
     id="namedview1108"
     pagecolor="#ffffff"
     bordercolor="#000000"
     borderopacity="0.25"
     inkscape:pageshadow="2"
     inkscape:pageopacity="0.0"
     inkscape:pagecheckerboard="0"
     inkscape:document-units="mm"
     showgrid="false"
     fit-margin-top="2"
     fit-margin-left="2"
     fit-margin-right="2"
     fit-margin-bottom="2"
     inkscape:zoom="0.64052329"
     inkscape:cx="126.4591"
     inkscape:cy="244.33148"
     inkscape:window-width="1848"
     inkscape:window-height="1016"
     inkscape:window-x="1512"
     inkscape:window-y="1107"
     inkscape:window-maximized="1"
     inkscape:current-layer="layer1" />
  <defs
     id="defs1103" />
  <g
     inkscape:label="Ebene 1"
     inkscape:groupmode="layer"
     id="layer1"
     transform="translate(-71.376063,-83.832735)">
    <g
       aria-label="ENGINEERING"
       transform="matrix(0.24303864,0,0,0.2880379,57.477736,35.156364)"
       style="font-style:normal;font-variant:normal;font-weight:bold;font-stretch:normal;font-size:33.2333px;line-height:1.25;font-family:sans-serif;-inkscape-font-specification:'sans-serif, Bold';font-variant-ligatures:normal;font-variant-caps:normal;font-variant-numeric:normal;font-feature-settings:normal;text-align:start;letter-spacing:0px;word-spacing:0px;writing-mode:lr-tb;text-anchor:start;display:inline;fill:#000000;fill-opacity:1;stroke:none;stroke-width:0.830833"
       id="text1116">
      <path
         d="m 65.579795,176.3746 h 16.860069 v 4.72212 H 71.82727 v 4.51116 h 9.979733 V 190.33 H 71.82727 v 5.5497 h 10.969592 v 4.72212 H 65.579795 Z"
         style="fill:#000000;fill-opacity:1;stroke-width:0.830833"
         id="path9171"
         inkscape:connector-curvature="0" />
      <path
         d="m 88.281659,176.3746 h 6.977699 l 8.811372,16.61666 V 176.3746 h 5.92293 v 24.22722 h -6.9777 l -8.81137,-16.61666 v 16.61666 h -5.922931 z"
         style="fill:#000000;fill-opacity:1;stroke-width:0.830833"
         id="path9173"
         inkscape:connector-curvature="0" />
      <path
         d="m 137.872,198.8006 q -2.33671,1.13591 -4.85193,1.70386 -2.51522,0.56795 -5.19271,0.56795 -6.05275,0 -9.59028,-3.37526 -3.53753,-3.39148 -3.53753,-9.1846 0,-5.85802 3.60244,-9.21705 3.60244,-3.35903 9.86614,-3.35903 2.41786,0 4.62476,0.45436 2.22313,0.45436 4.18662,1.34686 v 5.0142 q -2.0284,-1.15213 -4.04058,-1.72008 -1.99594,-0.56795 -4.00812,-0.56795 -3.73225,0 -5.76066,2.09331 -2.01217,2.07708 -2.01217,5.95538 0,3.84585 1.94727,5.93916 1.94726,2.09331 5.53347,2.09331 0.97364,0 1.80122,-0.11359 0.84382,-0.12982 1.50913,-0.38945 v -4.70589 h -3.81339 v -4.18662 h 9.73632 z"
         style="fill:#000000;fill-opacity:1;stroke-width:0.830833"
         id="path9175"
         inkscape:connector-curvature="0" />
      <path
         d="m 143.37303,176.3746 h 6.24748 v 24.22722 h -6.24748 z"
         style="fill:#000000;fill-opacity:1;stroke-width:0.830833"
         id="path9177"
         inkscape:connector-curvature="0" />
      <path
         d="m 155.73817,176.3746 h 6.9777 l 8.81137,16.61666 V 176.3746 h 5.92293 v 24.22722 h -6.9777 l -8.81137,-16.61666 v 16.61666 h -5.92293 z"
         style="fill:#000000;fill-opacity:1;stroke-width:0.830833"
         id="path9179"
         inkscape:connector-curvature="0" />
      <path
         d="m 183.5516,176.3746 h 16.86007 v 4.72212 h -10.6126 v 4.51116 h 9.97973 V 190.33 h -9.97973 v 5.5497 h 10.96959 v 4.72212 H 183.5516 Z"
         style="fill:#000000;fill-opacity:1;stroke-width:0.830833"
         id="path9181"
         inkscape:connector-curvature="0" />
      <path
         d="m 206.25345,176.3746 h 16.86007 v 4.72212 h -10.61259 v 4.51116 h 9.97973 V 190.33 h -9.97973 v 5.5497 h 10.96959 v 4.72212 h -17.21707 z"
         style="fill:#000000;fill-opacity:1;stroke-width:0.830833"
         id="path9183"
         inkscape:connector-curvature="0" />
      <path
         d="m 237.83161,187.11701 q 1.96349,0 2.80731,-0.73022 0.86004,-0.73023 0.86004,-2.40163 0,-1.65517 -0.86004,-2.36917 -0.84382,-0.714 -2.80731,-0.714 h -2.62881 v 6.21502 z m -2.62881,4.31644 v 9.16837 h -6.24747 V 176.3746 h 9.5416 q 4.78702,0 7.01015,1.60649 2.23936,1.6065 2.23936,5.07912 0,2.40163 -1.16836,3.94321 -1.15214,1.54159 -3.48885,2.27181 1.28195,0.29209 2.28803,1.33063 1.02232,1.02232 2.06086,3.11563 l 3.39149,6.88033 h -6.65316 l -2.95335,-6.02029 q -0.8925,-1.81745 -1.81745,-2.48277 -0.90872,-0.66531 -2.43408,-0.66531 z"
         style="fill:#000000;fill-opacity:1;stroke-width:0.830833"
         id="path9185"
         inkscape:connector-curvature="0" />
      <path
         d="m 254.54563,176.3746 h 6.24748 v 24.22722 h -6.24748 z"
         style="fill:#000000;fill-opacity:1;stroke-width:0.830833"
         id="path9187"
         inkscape:connector-curvature="0" />
      <path
         d="m 266.91076,176.3746 h 6.9777 l 8.81137,16.61666 V 176.3746 h 5.92293 v 24.22722 h -6.9777 l -8.81137,-16.61666 v 16.61666 h -5.92293 z"
         style="fill:#000000;fill-opacity:1;stroke-width:0.830833"
         id="path9189"
         inkscape:connector-curvature="0" />
      <path
         d="m 316.50112,198.8006 q -2.33672,1.13591 -4.85194,1.70386 -2.51522,0.56795 -5.1927,0.56795 -6.05275,0 -9.59028,-3.37526 -3.53754,-3.39148 -3.53754,-9.1846 0,-5.85802 3.60244,-9.21705 3.60244,-3.35903 9.86615,-3.35903 2.41785,0 4.62475,0.45436 2.22313,0.45436 4.18662,1.34686 v 5.0142 q -2.0284,-1.15213 -4.04057,-1.72008 -1.99595,-0.56795 -4.00812,-0.56795 -3.73226,0 -5.76066,2.09331 -2.01218,2.07708 -2.01218,5.95538 0,3.84585 1.94727,5.93916 1.94726,2.09331 5.53348,2.09331 0.97363,0 1.80122,-0.11359 0.84381,-0.12982 1.50913,-0.38945 v -4.70589 h -3.8134 v -4.18662 h 9.73633 z"
         style="fill:#000000;fill-opacity:1;stroke-width:0.830833"
         id="path9191"
         inkscape:connector-curvature="0" />
    </g>
    <g
       aria-label="RESIN"
       style="font-style:normal;font-variant:normal;font-weight:bold;font-stretch:normal;font-size:72.1058px;line-height:1.25;font-family:sans-serif;-inkscape-font-specification:'sans-serif, Bold';font-variant-ligatures:normal;font-variant-caps:normal;font-variant-numeric:normal;font-feature-settings:normal;text-align:start;letter-spacing:0px;word-spacing:0px;writing-mode:lr-tb;text-anchor:start;display:inline;fill:#000000;fill-opacity:1;stroke:none;stroke-width:1.80265"
       id="text1120"
       transform="matrix(0.26458333,0,0,0.26458333,57.477736,35.156364)">
      <path
         d="m 79.346896,244.7183 q 4.260158,0 6.09097,-1.58436 1.866019,-1.58436 1.866019,-5.21077 0,-3.59121 -1.866019,-5.14036 -1.830812,-1.54915 -6.09097,-1.54915 h -5.703682 v 13.48464 z m -5.703682,9.3653 v 19.89247 H 60.088166 v -52.56541 h 20.702255 q 10.386335,0 15.20982,3.48558 4.858689,3.48558 4.858689,11.02008 0,5.21077 -2.534967,8.55552 -2.499762,3.34475 -7.569702,4.92911 2.781426,0.63374 4.964316,2.88705 2.218099,2.2181 4.471403,6.75992 l 7.35846,14.92815 H 93.113192 l -6.407841,-13.06213 q -1.936436,-3.94329 -3.943287,-5.38681 -1.971643,-1.44353 -5.281187,-1.44353 z"
         style="fill:#000000;fill-opacity:1;stroke-width:1.80265"
         id="path9159"
         inkscape:connector-curvature="0" />
      <path
         d="m 115.61105,221.41066 h 36.58103 v 10.2455 H 129.1661 v 9.7878 h 21.65287 v 10.2455 H 129.1661 v 12.04111 h 23.80055 v 10.2455 h -37.3556 z"
         style="fill:#000000;fill-opacity:1;stroke-width:1.80265"
         id="path9161"
         inkscape:connector-curvature="0" />
      <path
         d="m 201.44795,223.06543 v 11.1257 q -4.33057,-1.93644 -8.4499,-2.92226 -4.11932,-0.98582 -7.78095,-0.98582 -4.85869,0 -7.18241,1.3379 -2.32372,1.3379 -2.32372,4.15454 0,2.11247 1.54915,3.30954 1.58435,1.16186 5.70368,2.00685 l 5.7741,1.16186 q 8.76677,1.7604 12.4636,5.35161 3.69683,3.5912 3.69683,10.21029 0,8.69636 -5.17556,12.95651 -5.14036,4.22495 -15.73794,4.22495 -4.99953,0 -10.03426,-0.95061 -5.03473,-0.95061 -10.06946,-2.81663 v -11.44258 q 5.03473,2.67581 9.71738,4.04891 4.71786,1.33791 9.08364,1.33791 4.4362,0 6.79513,-1.47874 2.35893,-1.47873 2.35893,-4.22495 0,-2.46455 -1.61956,-3.80245 -1.58436,-1.3379 -6.37263,-2.39414 l -5.24598,-1.16186 q -7.88658,-1.68998 -11.5482,-5.38681 -3.62642,-3.69683 -3.62642,-9.96384 0,-7.85137 5.06994,-12.07632 5.06994,-4.22495 14.57608,-4.22495 4.33058,0 8.9076,0.66895 4.57703,0.63374 9.47093,1.93644 z"
         style="fill:#000000;fill-opacity:1;stroke-width:1.80265"
         id="path9163"
         inkscape:connector-curvature="0" />
      <path
         d="m 216.7986,221.41066 h 13.55505 v 52.56541 H 216.7986 Z"
         style="fill:#000000;fill-opacity:1;stroke-width:1.80265"
         id="path9165"
         inkscape:connector-curvature="0" />
      <path
         d="m 243.62703,221.41066 h 15.1394 l 19.1179,36.0529 v -36.0529 h 12.85089 v 52.56541 h -15.1394 l -19.1179,-36.0529 v 36.0529 h -12.85089 z"
         style="fill:#000000;fill-opacity:1;stroke-width:1.80265"
         id="path9167"
         inkscape:connector-curvature="0" />
    </g>
    <g
       aria-label="EXTREME STRENGTH"
       transform="matrix(0.35253437,0,0,0.35302131,57.477736,185.15747)"
       style="font-style:normal;font-variant:normal;font-weight:normal;font-stretch:normal;font-size:14.9829px;line-height:1.25;font-family:sans-serif;-inkscape-font-specification:'sans-serif, Normal';font-variant-ligatures:normal;font-variant-caps:normal;font-variant-numeric:normal;font-feature-settings:normal;text-align:start;letter-spacing:0px;word-spacing:0px;writing-mode:lr-tb;text-anchor:start;display:inline;fill:#666666;fill-opacity:1;stroke:none;stroke-width:1.12372"
       id="text990">
      <path
         d="m 45.104287,-217.71582 h 7.6012 v 2.12892 h -4.784586 v 2.03381 h 4.499267 v 2.12892 h -4.499267 v 2.50204 h 4.945535 v 2.12892 h -7.762149 z"
         style="font-style:normal;font-variant:normal;font-weight:bold;font-stretch:normal;font-size:14.9829px;font-family:sans-serif;-inkscape-font-specification:'sans-serif, Bold';font-variant-ligatures:normal;font-variant-caps:normal;font-variant-numeric:normal;font-feature-settings:normal;text-align:start;writing-mode:lr-tb;text-anchor:start;fill:#666666;fill-opacity:1;stroke-width:1.12372"
         id="path9127"
         inkscape:connector-curvature="0" />
      <path
         d="m 61.426017,-212.36791 3.789627,5.5747 h -2.933669 l -2.553242,-3.7311 -2.531295,3.7311 h -2.9483 l 3.789626,-5.5747 -3.643308,-5.34791 h 2.940984 l 2.392293,3.51894 2.384977,-3.51894 h 2.955616 z"
         style="font-style:normal;font-variant:normal;font-weight:bold;font-stretch:normal;font-size:14.9829px;font-family:sans-serif;-inkscape-font-specification:'sans-serif, Bold';font-variant-ligatures:normal;font-variant-caps:normal;font-variant-numeric:normal;font-feature-settings:normal;text-align:start;writing-mode:lr-tb;text-anchor:start;fill:#666666;fill-opacity:1;stroke-width:1.12372"
         id="path9129"
         inkscape:connector-curvature="0" />
      <path
         d="m 65.588753,-217.71582 h 10.066653 v 2.12892 h -3.621361 v 8.79369 H 69.21743 v -8.79369 h -3.628677 z"
         style="font-style:normal;font-variant:normal;font-weight:bold;font-stretch:normal;font-size:14.9829px;font-family:sans-serif;-inkscape-font-specification:'sans-serif, Bold';font-variant-ligatures:normal;font-variant-caps:normal;font-variant-numeric:normal;font-feature-settings:normal;text-align:start;writing-mode:lr-tb;text-anchor:start;fill:#666666;fill-opacity:1;stroke-width:1.12372"
         id="path9131"
         inkscape:connector-curvature="0" />
      <path
         d="m 81.113054,-212.87271 q 0.885222,0 1.265648,-0.32921 0.387742,-0.32922 0.387742,-1.08276 0,-0.74621 -0.387742,-1.06811 -0.380426,-0.3219 -1.265648,-0.3219 h -1.185172 v 2.80198 z m -1.185172,1.94602 v 4.13348 h -2.816615 v -10.92261 h 4.301739 q 2.158184,0 3.16046,0.72427 1.009592,0.72427 1.009592,2.28987 0,1.08275 -0.526744,1.77776 -0.519427,0.69501 -1.572914,1.02422 0.577954,0.13169 1.031539,0.5999 0.460901,0.4609 0.929117,1.40465 l 1.529019,3.10194 h -2.999511 l -1.33149,-2.71419 q -0.402374,-0.81938 -0.819379,-1.11933 -0.409689,-0.29996 -1.097382,-0.29996 z"
         style="font-style:normal;font-variant:normal;font-weight:bold;font-stretch:normal;font-size:14.9829px;font-family:sans-serif;-inkscape-font-specification:'sans-serif, Bold';font-variant-ligatures:normal;font-variant-caps:normal;font-variant-numeric:normal;font-feature-settings:normal;text-align:start;writing-mode:lr-tb;text-anchor:start;fill:#666666;fill-opacity:1;stroke-width:1.12372"
         id="path9133"
         inkscape:connector-curvature="0" />
      <path
         d="m 88.648411,-217.71582 h 7.601201 v 2.12892 h -4.784587 v 2.03381 h 4.499267 v 2.12892 h -4.499267 v 2.50204 h 4.945536 v 2.12892 h -7.76215 z"
         style="font-style:normal;font-variant:normal;font-weight:bold;font-stretch:normal;font-size:14.9829px;font-family:sans-serif;-inkscape-font-specification:'sans-serif, Bold';font-variant-ligatures:normal;font-variant-caps:normal;font-variant-numeric:normal;font-feature-settings:normal;text-align:start;writing-mode:lr-tb;text-anchor:start;fill:#666666;fill-opacity:1;stroke-width:1.12372"
         id="path9135"
         inkscape:connector-curvature="0" />
      <path
         d="m 98.883328,-217.71582 h 3.584782 l 2.4874,5.84539 2.50203,-5.84539 h 3.57747 v 10.92261 h -2.66298 v -7.98895 l -2.51667,5.88929 h -1.78507 l -2.51667,-5.88929 v 7.98895 h -2.670292 z"
         style="font-style:normal;font-variant:normal;font-weight:bold;font-stretch:normal;font-size:14.9829px;font-family:sans-serif;-inkscape-font-specification:'sans-serif, Bold';font-variant-ligatures:normal;font-variant-caps:normal;font-variant-numeric:normal;font-feature-settings:normal;text-align:start;writing-mode:lr-tb;text-anchor:start;fill:#666666;fill-opacity:1;stroke-width:1.12372"
         id="path9137"
         inkscape:connector-curvature="0" />
      <path
         d="m 113.79309,-217.71582 h 7.6012 v 2.12892 h -4.78458 v 2.03381 h 4.49926 v 2.12892 h -4.49926 v 2.50204 h 4.94553 v 2.12892 h -7.76215 z"
         style="font-style:normal;font-variant:normal;font-weight:bold;font-stretch:normal;font-size:14.9829px;font-family:sans-serif;-inkscape-font-specification:'sans-serif, Bold';font-variant-ligatures:normal;font-variant-caps:normal;font-variant-numeric:normal;font-feature-settings:normal;text-align:start;writing-mode:lr-tb;text-anchor:start;fill:#666666;fill-opacity:1;stroke-width:1.12372"
         id="path9139"
         inkscape:connector-curvature="0" />
      <path
         d="m 136.84543,-217.37198 v 2.31182 q -0.89985,-0.40237 -1.75581,-0.60722 -0.85596,-0.20484 -1.61681,-0.20484 -1.00959,0 -1.49244,0.278 -0.48285,0.27801 -0.48285,0.86328 0,0.43895 0.3219,0.68769 0.32922,0.24142 1.18518,0.417 l 1.1998,0.24143 q 1.82165,0.36579 2.58982,1.11201 0.76817,0.74622 0.76817,2.12161 0,1.80702 -1.07544,2.69224 -1.06811,0.87791 -3.27019,0.87791 -1.03886,0 -2.08503,-0.19753 -1.04617,-0.19753 -2.09234,-0.58527 v -2.37766 q 1.04617,0.556 2.01918,0.84132 0.98033,0.27801 1.8875,0.27801 0.9218,0 1.41196,-0.30727 0.49017,-0.30727 0.49017,-0.87791 0,-0.51211 -0.33653,-0.79011 -0.32922,-0.278 -1.32418,-0.49748 l -1.09006,-0.24143 q -1.63876,-0.35116 -2.39961,-1.11932 -0.75354,-0.76817 -0.75354,-2.0704 0,-1.63144 1.05349,-2.50935 1.05349,-0.8779 3.02877,-0.8779 0.89986,0 1.85092,0.139 0.95107,0.13169 1.96797,0.40237 z"
         style="font-style:normal;font-variant:normal;font-weight:bold;font-stretch:normal;font-size:14.9829px;font-family:sans-serif;-inkscape-font-specification:'sans-serif, Bold';font-variant-ligatures:normal;font-variant-caps:normal;font-variant-numeric:normal;font-feature-settings:normal;text-align:start;writing-mode:lr-tb;text-anchor:start;fill:#666666;fill-opacity:1;stroke-width:1.12372"
         id="path9141"
         inkscape:connector-curvature="0" />
      <path
         d="m 138.73293,-217.71582 h 10.06665 v 2.12892 h -3.62136 v 8.79369 h -2.81661 v -8.79369 h -3.62868 z"
         style="font-style:normal;font-variant:normal;font-weight:bold;font-stretch:normal;font-size:14.9829px;font-family:sans-serif;-inkscape-font-specification:'sans-serif, Bold';font-variant-ligatures:normal;font-variant-caps:normal;font-variant-numeric:normal;font-feature-settings:normal;text-align:start;writing-mode:lr-tb;text-anchor:start;fill:#666666;fill-opacity:1;stroke-width:1.12372"
         id="path9143"
         inkscape:connector-curvature="0" />
      <path
         d="m 154.25723,-212.87271 q 0.88523,0 1.26565,-0.32921 0.38774,-0.32922 0.38774,-1.08276 0,-0.74621 -0.38774,-1.06811 -0.38042,-0.3219 -1.26565,-0.3219 h -1.18517 v 2.80198 z m -1.18517,1.94602 v 4.13348 h -2.81661 v -10.92261 h 4.30174 q 2.15818,0 3.16046,0.72427 1.00959,0.72427 1.00959,2.28987 0,1.08275 -0.52675,1.77776 -0.51942,0.69501 -1.57291,1.02422 0.57795,0.13169 1.03154,0.5999 0.4609,0.4609 0.92912,1.40465 l 1.52902,3.10194 h -2.99952 l -1.33149,-2.71419 q -0.40237,-0.81938 -0.81937,-1.11933 -0.40969,-0.29996 -1.09739,-0.29996 z"
         style="font-style:normal;font-variant:normal;font-weight:bold;font-stretch:normal;font-size:14.9829px;font-family:sans-serif;-inkscape-font-specification:'sans-serif, Bold';font-variant-ligatures:normal;font-variant-caps:normal;font-variant-numeric:normal;font-feature-settings:normal;text-align:start;writing-mode:lr-tb;text-anchor:start;fill:#666666;fill-opacity:1;stroke-width:1.12372"
         id="path9145"
         inkscape:connector-curvature="0" />
      <path
         d="m 161.79259,-217.71582 h 7.6012 v 2.12892 h -4.78459 v 2.03381 h 4.49927 v 2.12892 h -4.49927 v 2.50204 h 4.94554 v 2.12892 h -7.76215 z"
         style="font-style:normal;font-variant:normal;font-weight:bold;font-stretch:normal;font-size:14.9829px;font-family:sans-serif;-inkscape-font-specification:'sans-serif, Bold';font-variant-ligatures:normal;font-variant-caps:normal;font-variant-numeric:normal;font-feature-settings:normal;text-align:start;writing-mode:lr-tb;text-anchor:start;fill:#666666;fill-opacity:1;stroke-width:1.12372"
         id="path9147"
         inkscape:connector-curvature="0" />
      <path
         d="m 172.0275,-217.71582 h 3.14583 l 3.97253,7.49146 v -7.49146 h 2.67029 v 10.92261 h -3.14583 l -3.97252,-7.49147 v 7.49147 h -2.6703 z"
         style="font-style:normal;font-variant:normal;font-weight:bold;font-stretch:normal;font-size:14.9829px;font-family:sans-serif;-inkscape-font-specification:'sans-serif, Bold';font-variant-ligatures:normal;font-variant-caps:normal;font-variant-numeric:normal;font-feature-settings:normal;text-align:start;writing-mode:lr-tb;text-anchor:start;fill:#666666;fill-opacity:1;stroke-width:1.12372"
         id="path9149"
         inkscape:connector-curvature="0" />
      <path
         d="m 194.38485,-207.60528 q -1.05349,0.51212 -2.18745,0.76817 -1.13396,0.25606 -2.34108,0.25606 -2.72883,0 -4.32369,-1.52171 -1.59486,-1.52901 -1.59486,-4.14078 0,-2.64104 1.62412,-4.15542 1.62413,-1.51439 4.44806,-1.51439 1.09006,0 2.08502,0.20484 1.00228,0.20485 1.8875,0.60722 v 2.26061 q -0.91448,-0.51943 -1.82165,-0.77549 -0.89986,-0.25605 -1.80703,-0.25605 -1.68265,0 -2.59713,0.94375 -0.90717,0.93643 -0.90717,2.68493 0,1.73386 0.8779,2.67761 0.87791,0.94375 2.49472,0.94375 0.43895,0 0.81206,-0.0512 0.38043,-0.0585 0.68038,-0.17559 v -2.1216 h -1.71923 v -1.8875 h 4.38953 z"
         style="font-style:normal;font-variant:normal;font-weight:bold;font-stretch:normal;font-size:14.9829px;font-family:sans-serif;-inkscape-font-specification:'sans-serif, Bold';font-variant-ligatures:normal;font-variant-caps:normal;font-variant-numeric:normal;font-feature-settings:normal;text-align:start;writing-mode:lr-tb;text-anchor:start;fill:#666666;fill-opacity:1;stroke-width:1.12372"
         id="path9151"
         inkscape:connector-curvature="0" />
      <path
         d="m 195.29933,-217.71582 h 10.06665 v 2.12892 h -3.62136 v 8.79369 h -2.81661 v -8.79369 h -3.62868 z"
         style="font-style:normal;font-variant:normal;font-weight:bold;font-stretch:normal;font-size:14.9829px;font-family:sans-serif;-inkscape-font-specification:'sans-serif, Bold';font-variant-ligatures:normal;font-variant-caps:normal;font-variant-numeric:normal;font-feature-settings:normal;text-align:start;writing-mode:lr-tb;text-anchor:start;fill:#666666;fill-opacity:1;stroke-width:1.12372"
         id="path9153"
         inkscape:connector-curvature="0" />
      <path
         d="m 206.82183,-217.71582 h 2.81662 v 4.16273 h 4.15542 v -4.16273 h 2.81661 v 10.92261 h -2.81661 v -4.63096 h -4.15542 v 4.63096 h -2.81662 z"
         style="font-style:normal;font-variant:normal;font-weight:bold;font-stretch:normal;font-size:14.9829px;font-family:sans-serif;-inkscape-font-specification:'sans-serif, Bold';font-variant-ligatures:normal;font-variant-caps:normal;font-variant-numeric:normal;font-feature-settings:normal;text-align:start;writing-mode:lr-tb;text-anchor:start;fill:#666666;fill-opacity:1;stroke-width:1.12372"
         id="path9155"
         inkscape:connector-curvature="0" />
    </g>
  </g>
</svg>
